<svg xmlns="http://www.w3.org/2000/svg" viewBox="0 0 1163.76 1144.63"><defs><style>.cls-1{fill:#80ed99;}.cls-2{fill:#22577a;}.cls-3{fill:#57cc99;}.cls-4{fill:#38a3a5;}</style></defs><g id="Layer_2" data-name="Layer 2"><g id="Layer_1-2" data-name="Layer 1"><path class="cls-1" d="M451.28,708.53c1.49-2.13,3-4.31,4.42-6.5.46-.68.91-1.37,1.36-2l-189-99.15-4.82-2.16V228.08l-1.19-.9-40.78-30.57V619.48l219.2,103.77Q446,716.1,451.28,708.53Z"/><path class="cls-2" d="M793.57,759.17a137.26,137.26,0,0,1-50.31-9.2A122.82,122.82,0,0,1,695,715.73l-.17.06-.14-.42A154.12,154.12,0,0,1,679.15,694q-2-3.19-3.81-6.56-4.41-8-8.29-16.82c-1-2.3-2-4.62-2.93-7q-10.75-26.82-16.93-61.06C642.2,574.85,637.08,529,641,468c5.18-80.82,33.83-158.71,85.14-231.51a577,577,0,0,1,45.7-56.65L593.92,319.91,367.65,161.84c39.93,40.16,72.91,84.62,98,132v0l.07,0,0,.05a494.12,494.12,0,0,1,34.83,83,446.23,446.23,0,0,1,15.35,65.09c.54,3.44,1,6.9,1.51,10.34a407,407,0,0,1,3.5,63.14,7.22,7.22,0,0,1,0,.8c0,1.67-.12,3.36-.16,5-.06,1.28-.13,2.57-.19,3.85-.07,1.66-.16,3.32-.27,5a367.92,367.92,0,0,1-13.77,80.08c-.74,2.52-1.5,5-2.3,7.56q-4.76,15.14-10.84,29.77a342.53,342.53,0,0,1-18.56,37.73c-1.26,2.21-2.53,4.38-3.83,6.56a362.13,362.13,0,0,1-23.59,34.54c-1.7,2.23-3.47,4.45-5.27,6.67a388.34,388.34,0,0,1-29,32l-4.23,4.11c-4.09,3.93-8.32,7.81-12.64,11.62a451.88,451.88,0,0,1-78.48,55.3A544,544,0,0,0,584.64,735.93l2,2.81s0,0,.05.06c63.6,74.64,148.59,100.87,233.21,72,74.55-25.47,109.73-80.93,123.75-110.65C918.77,719,858,759.16,793.57,759.17Z"/><path class="cls-1" d="M943.07,196.61V619.48L717.16,726.43A122.61,122.61,0,0,1,704.58,715l-1.78-1.9c-.65-.7-1.28-1.41-1.9-2.13s-1-1.18-1.53-1.77-1.28-1.5-1.9-2.27c-1.78-2.17-3.51-4.44-5.18-6.78l204.8-106.65.08,0,5.12-2.36V227.18l9.32-7,7.55-5.64Z"/><path class="cls-3" d="M894.74,163.38V586.25l-1.06.5L754.36,659.29,688,693.85c-.67-1-1.3-2-1.92-3.07-.56-.89-1.12-1.78-1.65-2.69-.75-1.26-1.46-2.55-2.2-3.85-1.72-3.09-3.41-6.3-5-9.62-1.1-2.26-2.16-4.59-3.2-7-.16-.38-.33-.77-.48-1.15l11.19-7.08s0,.06,0,.09L848.64,547.84V198Z"/><path class="cls-4" d="M841.09,355.56V543.85L681.59,652.54h0l-10.95,6.92a286.89,286.89,0,0,1-11-34.71c-.63-2.55-1.23-5.15-1.84-7.77-.24-1.18-.53-2.38-.77-3.57-.23-1-.44-2-.65-3.08L792.26,528V429.25L647.2,506.93c.06-12,.46-24.86,1.35-38.49a420.69,420.69,0,0,1,36.32-145.22V440.67l148.67-81Z"/><path class="cls-4" d="M372.06,414.67V523.51L499,609.28c-.42,1.42-.83,2.84-1.28,4.25q-4.92,15.83-11.33,31.26c-2.52,6-5.2,11.9-8,17.64L325.16,558.94V132.84c52.87,45,95.47,96.54,126.69,151.25L372,227.4V348.61L509.4,446.75l.54,3.67c.27,2,.53,4,.77,6,.05.3.08.62.12.92.17,1.48.35,3,.52,4.44s.31,3.07.48,4.59.27,2.77.38,4.16.22,2.75.34,4.1c.08.91.14,1.82.22,2.71,0,.24,0,.47,0,.71s.05.47.05.71,0,.18,0,.27,0,.17,0,.24c0,.3,0,.61.07.91s0,.39,0,.59c.25,4,.45,8,.57,12,.06,2.1.11,4.19.17,6.29q.06,6.22,0,12.44Z"/><path class="cls-3" d="M475,669.24c-2.28,4.44-4.66,8.82-7.09,13.08l-.27.47c-1.18,2.06-2.35,4.08-3.56,6.09-.09.15-.18.32-.26.47q-1.29,2.14-2.63,4.26l-80-42L271.47,594.09l-.68-.35V170.93l46.82,35.12v6l1.51,1.14h0l-1.51-1.13V563Z"/><path class="cls-4" d="M841.09,125.26V234l-7.55,3.79L690.81,310.47c38.22-78.9,94.44-137.85,137.06-174.78,1.91-1.66,3.79-3.29,5.67-4.84l.4-.34,4.61-3.21,2.51-2Z"/><path class="cls-2" d="M477.72,135.45A117.82,117.82,0,0,1,479.83,115c2.37-12.23,7.33-24.1,12.11-35.59,1.4-3.37,2.83-6.82,4.22-10.28l-4.49-2.77-2.74-1.67L484.46,62c-1.76,4.17-3.63,8.29-5.47,12.33-6.34,13.9-12.89,28.27-14.78,43.7-.91,7.38.76,14.51,3.11,21.44h0L460.66,142l11.91,31.19,22.51-8.59-11.92-31.2Zm10.67,26.13-12.82,4.9L467.35,145l1.69-.65c.38,1,.77,2,1.15,3a132.7,132.7,0,0,1,4.59,13.7l5.05-1.11A124.16,124.16,0,0,1,477.77,141l2.4-.92"/><path class="cls-2" d="M662.46,140.63l-.73-1.17-1.39,0c-20.3-.58-41,5.47-61.72,18,6-7.55,15.67-13.68,29-18.38,1-.36,2.08-.72,3.17-1.06l1.71-.53c.62-.18,1.24-.38,1.88-.56,1.05-.3,2.11-.6,3.2-.88l.47-.12c1.27-.34,2.55-.65,3.87-1,.34-.09.69-.17,1-.24q1.56-.36,3.15-.69c.36-.08.71-.16,1.09-.23,1.27-.26,2.58-.52,3.9-.77l.33-.05c1.68-.31,3.41-.61,5.17-.9l2.18-.35V102.3l72.78-23L602.46,0,458,45.76,484.46,62l4.47,2.75,2.74,1.67,4.49,2.77,32.09,19.69,1.23-.53A118,118,0,0,1,541.19,84c19.9-6.22,49.92-8.26,71.7-3.8l-4.64.13h0l-3.36.1q-2.89.1-5.81.26l-4.33.26h-.18c-1.44.11-2.88.21-4.32.33l-.35,0c-1.39.12-2.76.25-4.14.39l-.49.06c-1.32.13-2.66.27-4,.42l-.62.08-3.81.49-.73.11c-1.23.18-2.46.36-3.68.56-.28,0-.55.09-.82.12q-1.77.3-3.54.63l-.91.17L563.8,85c-.34.08-.66.16-1,.22-1.08.23-2.15.48-3.23.74l-1.09.26-3,.79-1.22.34c-1,.27-1.88.54-2.81.83l-1.37.41-2.55.84L546,90c-.76.27-1.51.56-2.27.84-.57.22-1.14.44-1.69.68l-1.52.61-1.51.64-1.52.69v27.9A85.38,85.38,0,0,0,526.92,132a84,84,0,0,0,64.56,137.53c2.61,0,5.24-.13,7.87-.38a84,84,0,0,0,75.77-91.38A82.89,82.89,0,0,0,662.46,140.63Z"/><path class="cls-3" d="M77.53,1099.37a25.21,25.21,0,0,0,5.14,1q2.56.24,5.13.24a43,43,0,0,0,12.36-1.76,44.61,44.61,0,0,0,11.16-5.06,41.38,41.38,0,0,0,9.31-8,42,42,0,0,0,6.66-10.51l32.11,32.26a86,86,0,0,1-14.05,15.57,88.15,88.15,0,0,1-17.18,11.72,85.76,85.76,0,0,1-19.42,7.31,88.45,88.45,0,0,1-21,2.48,86.78,86.78,0,0,1-62-25.52A88.13,88.13,0,0,1,6.9,1090.46,94.32,94.32,0,0,1,0,1053.94a97.42,97.42,0,0,1,6.9-37.24,84.16,84.16,0,0,1,46.79-47.19,88.61,88.61,0,0,1,34.11-6.58,86,86,0,0,1,21,2.57,88,88,0,0,1,36.76,19.18,87.12,87.12,0,0,1,14.13,15.65ZM100,1009a25.46,25.46,0,0,0-6-1.45,58.58,58.58,0,0,0-6.18-.32,43.88,43.88,0,0,0-16.93,3.29,40.37,40.37,0,0,0-13.81,9.39,44.4,44.4,0,0,0-9.23,14.69,52.69,52.69,0,0,0-3.37,19.34c0,1.61.08,3.43.25,5.46a61.53,61.53,0,0,0,.8,6.18c.37,2.09.82,4.09,1.36,6a22.18,22.18,0,0,0,2.09,5.13Z"/><path class="cls-2" d="M172.88,980.26a66.28,66.28,0,0,1,5.46-26.8A70,70,0,0,1,215.1,916.7a66.28,66.28,0,0,1,26.8-5.46H347.52v46.07H241.9a22.73,22.73,0,0,0-23,23,23.53,23.53,0,0,0,1.76,9.07,22.49,22.49,0,0,0,12.2,12.28,22.82,22.82,0,0,0,9,1.77H288a67.68,67.68,0,0,1,26.89,5.38,68.66,68.66,0,0,1,36.76,36.75,69.69,69.69,0,0,1,0,53.7,69.56,69.56,0,0,1-14.77,21.91,70.29,70.29,0,0,1-22,14.85,66.88,66.88,0,0,1-26.89,5.45H185.72v-46.06H288a23,23,0,1,0,0-45.91H241.9a66.28,66.28,0,0,1-26.8-5.46,69.86,69.86,0,0,1-36.76-36.84A66.88,66.88,0,0,1,172.88,980.26Z"/><path class="cls-2" d="M532.76,1003.7,500.66,1036a43.76,43.76,0,0,0-6.58-12.12,44.63,44.63,0,0,0-9.39-9.06,40.33,40.33,0,0,0-11.32-5.62,41.17,41.17,0,0,0-12.52-1.93,39.68,39.68,0,0,0-16.93,3.69,41.54,41.54,0,0,0-13.81,10.36,49.6,49.6,0,0,0-9.23,15.81,58,58,0,0,0-3.37,20.22,42.27,42.27,0,0,0,3.37,16.86,44.32,44.32,0,0,0,9.23,13.8,43,43,0,0,0,30.74,12.68,43,43,0,0,0,12.36-1.76,44.61,44.61,0,0,0,11.16-5.06,42.18,42.18,0,0,0,16-18.54l32.1,32.26a86.36,86.36,0,0,1-14,15.57,88.45,88.45,0,0,1-17.18,11.72,85.94,85.94,0,0,1-19.42,7.31,88.51,88.51,0,0,1-20.95,2.48,85.9,85.9,0,0,1-34.11-6.82A88,88,0,0,1,380,1091.34a84.47,84.47,0,0,1-6.9-34,98.16,98.16,0,0,1,6.9-36.92,95.27,95.27,0,0,1,18.86-29.94,89.23,89.23,0,0,1,27.93-20.14,80.35,80.35,0,0,1,34.11-7.38A82.44,82.44,0,0,1,482,965.66,85.17,85.17,0,0,1,519,986.36,79.19,79.19,0,0,1,532.76,1003.7Z"/><path class="cls-2" d="M597.93,1141.42H554.11V901.13h43.82v75.92a51.46,51.46,0,0,1,16.22-8.43,59.49,59.49,0,0,1,17-2.48,74.49,74.49,0,0,1,29.86,6,76,76,0,0,1,24.32,16.53,79,79,0,0,1,16.37,24.56,75.26,75.26,0,0,1,6,29.94v98.23H663.59v-98.23h.32a32.18,32.18,0,0,0-2.57-12.76,33,33,0,0,0-17.5-17.58,31.62,31.62,0,0,0-12.68-2.57,33.21,33.21,0,0,0-13,2.57,32.69,32.69,0,0,0-17.66,17.58,32.18,32.18,0,0,0-2.57,12.76Z"/><path class="cls-2" d="M905,1053.94a92.46,92.46,0,0,1-6.91,35.88,89.76,89.76,0,0,1-18.78,28.73,87.75,87.75,0,0,1-27.85,19.1,87.23,87.23,0,0,1-68.38,0,88,88,0,0,1-46.79-47.83,92.64,92.64,0,0,1-6.9-35.88,94.08,94.08,0,0,1,6.9-36.28,88.85,88.85,0,0,1,18.86-28.81,87.62,87.62,0,0,1,27.93-19,85.1,85.1,0,0,1,34.11-6.9,89.91,89.91,0,0,1,34.27,6.5,82.77,82.77,0,0,1,27.85,18.46,87.41,87.41,0,0,1,18.78,28.73Q905,1033.39,905,1053.94Zm-44.15,0a51,51,0,0,0-3.45-19.18A45.49,45.49,0,0,0,848,1020a40.5,40.5,0,0,0-13.88-9.47,45.23,45.23,0,0,0-33.87,0,39.75,39.75,0,0,0-13.81,9.47,45.29,45.29,0,0,0-9.23,14.77,52.24,52.24,0,0,0-3.37,19.18,49.79,49.79,0,0,0,3.37,18.46,46.48,46.48,0,0,0,9.23,14.77,43.29,43.29,0,0,0,13.81,9.87,40.41,40.41,0,0,0,16.93,3.61,42.87,42.87,0,0,0,16.94-3.37,42.09,42.09,0,0,0,13.88-9.47,44.35,44.35,0,0,0,9.39-14.77A51.2,51.2,0,0,0,860.86,1053.94Z"/><path class="cls-2" d="M1095.38,1053.94a92.64,92.64,0,0,1-6.9,35.88,89.76,89.76,0,0,1-18.78,28.73,87.75,87.75,0,0,1-27.85,19.1,87.23,87.23,0,0,1-68.38,0,88,88,0,0,1-46.79-47.83,92.64,92.64,0,0,1-6.9-35.88,94.08,94.08,0,0,1,6.9-36.28,88.85,88.85,0,0,1,18.86-28.81,87.62,87.62,0,0,1,27.93-19,85.1,85.1,0,0,1,34.11-6.9,89.91,89.91,0,0,1,34.27,6.5,82.77,82.77,0,0,1,27.85,18.46,87.41,87.41,0,0,1,18.78,28.73Q1095.38,1033.39,1095.38,1053.94Zm-44.14,0a51,51,0,0,0-3.45-19.18,45.49,45.49,0,0,0-9.39-14.77,40.54,40.54,0,0,0-13.89-9.47,45.23,45.23,0,0,0-33.87,0,39.81,39.81,0,0,0-13.8,9.47,45.13,45.13,0,0,0-9.23,14.77,52,52,0,0,0-3.37,19.18,49.58,49.58,0,0,0,3.37,18.46,46.31,46.31,0,0,0,9.23,14.77,43.36,43.36,0,0,0,13.8,9.87,40.42,40.42,0,0,0,16.94,3.61,42.82,42.82,0,0,0,16.93-3.37,42.13,42.13,0,0,0,13.89-9.47,44.35,44.35,0,0,0,9.39-14.77A51.2,51.2,0,0,0,1051.24,1053.94Z"/><path class="cls-2" d="M1163.76,1141.42h-44.14V901.13h44.14Z"/></g></g></svg>