<svg xmlns="http://www.w3.org/2000/svg" width="1080" height="345.324" viewBox="0 0 1080 345.324">
  <g id="Group_7334" data-name="Group 7334" transform="translate(2923.52 -3695.803)">
    <g id="Group_7332" data-name="Group 7332" transform="translate(-2923.52 3695.803)">
      <path id="Path_3409" data-name="Path 3409" d="M-2828.53,4036.889c.617-.88,1.222-1.777,1.828-2.682.187-.281.374-.567.561-.849l-78.055-40.949-1.989-.892V3838.476l-.493-.375-16.841-12.625v174.636L-2833,4042.97Q-2830.712,4040.014-2828.53,4036.889Z" transform="translate(2923.52 -3744.282)" fill="#80ed99"/>
      <path id="Path_3410" data-name="Path 3410" d="M-2663.38,4049.229a56.733,56.733,0,0,1-20.777-3.8,50.771,50.771,0,0,1-19.941-14.141l-.069.025-.056-.175a63.381,63.381,0,0,1-6.412-8.837q-.814-1.32-1.572-2.708-1.825-3.292-3.424-6.948c-.418-.948-.823-1.909-1.21-2.894a129.535,129.535,0,0,1-6.992-25.219c-2.058-11.426-4.172-30.345-2.551-55.569,2.139-33.376,13.972-65.543,35.161-95.607a238.309,238.309,0,0,1,18.874-23.4l-73.483,57.865-93.443-65.281a230.554,230.554,0,0,1,40.475,54.527v.006l.031.019-.013.019a204.463,204.463,0,0,1,14.384,34.3,184.4,184.4,0,0,1,6.337,26.877c.225,1.422.437,2.851.624,4.272a168.422,168.422,0,0,1,1.447,26.073,2.874,2.874,0,0,1-.013.331c-.019.692-.05,1.391-.068,2.083q-.037.8-.075,1.591-.047,1.029-.112,2.059a151.835,151.835,0,0,1-5.688,33.071c-.306,1.041-.617,2.083-.948,3.124q-1.965,6.25-4.479,12.294a141.242,141.242,0,0,1-7.666,15.581c-.518.911-1.041,1.809-1.578,2.708a150.126,150.126,0,0,1-9.743,14.264c-.705.923-1.435,1.84-2.177,2.757a160.055,160.055,0,0,1-11.97,13.2c-.574.562-1.16,1.129-1.747,1.7-1.69,1.622-3.437,3.225-5.221,4.8a186.688,186.688,0,0,1-32.41,22.841,224.528,224.528,0,0,0,56.873-12.979,224.794,224.794,0,0,0,53.349-28.424l.829,1.16c.012.006.012.019.019.025,26.266,30.826,61.365,41.66,96.313,29.721a87.581,87.581,0,0,0,51.1-45.7C-2611.679,4032.625-2636.778,4049.223-2663.38,4049.229Z" transform="translate(2899.729 -3735.709)" fill="#22577a"/>
      <path id="Path_3411" data-name="Path 3411" d="M-2509.288,3825.477v174.636l-93.294,44.167a50.541,50.541,0,0,1-5.2-4.728c-.249-.262-.493-.524-.735-.786q-.4-.43-.786-.879c-.218-.243-.424-.486-.63-.73q-.4-.458-.786-.936-1.1-1.348-2.139-2.8l84.579-44.043.031-.019,2.115-.973V3838.1l3.848-2.888,3.119-2.333Z" transform="translate(2807.375 -3744.282)" fill="#80ed99"/>
      <path id="Path_3412" data-name="Path 3412" d="M-2533.873,3803.561V3978.2l-.437.206-57.534,29.959-27.407,14.271c-.274-.418-.536-.835-.792-1.266-.23-.368-.461-.736-.68-1.11-.312-.523-.6-1.054-.91-1.591-.711-1.278-1.41-2.6-2.071-3.973-.455-.937-.892-1.9-1.322-2.876-.069-.156-.137-.318-.2-.474l4.622-2.925c.006.012.019.025.019.038l67.676-46.12v-144.5Z" transform="translate(2812.001 -3736.089)" fill="#57cc99"/>
      <path id="Path_3413" data-name="Path 3413" d="M-2562.52,3922.34V4000.1l-65.867,44.885-.012.006-4.522,2.856a117.34,117.34,0,0,1-4.523-14.333c-.262-1.054-.511-2.127-.76-3.212-.1-.487-.219-.979-.318-1.472-.094-.425-.181-.848-.268-1.272l56.105-34v-40.786l-59.9,32.079c.025-4.971.187-10.267.555-15.893a173.727,173.727,0,0,1,15-59.973v48.5l61.4-33.464Z" transform="translate(2818.492 -3775.503)" fill="#38a3a5"/>
      <path id="Path_3414" data-name="Path 3414" d="M-2835.626,3899.809v44.947l52.407,35.422c-.175.587-.343,1.173-.53,1.753q-2.031,6.54-4.678,12.911-1.563,3.734-3.3,7.286l-63.266-42.739v-175.97a236.547,236.547,0,0,1,52.319,62.461l-32.983-23.409v50.055l56.748,40.531.225,1.516c.112.83.219,1.647.318,2.477.019.125.031.255.05.381.068.611.143,1.222.211,1.833.063.63.132,1.267.2,1.9.05.574.112,1.142.156,1.715s.094,1.135.143,1.7c.031.374.056.748.088,1.116.006.1.012.194.019.293s.019.194.019.293c0,.038.006.075.006.113s.006.068.006.1c.006.125.019.25.031.374,0,.081.006.162.006.243q.16,2.48.237,4.959c.025.866.044,1.727.068,2.595q.028,2.572,0,5.139Z" transform="translate(2897.901 -3728.559)" fill="#38a3a5"/>
      <path id="Path_3415" data-name="Path 3415" d="M-2806.544,4014.333c-.942,1.834-1.922,3.643-2.925,5.4-.038.063-.075.131-.113.193-.487.849-.973,1.684-1.472,2.514-.037.062-.075.131-.106.193q-.534.89-1.085,1.759l-33.021-17.321-45.308-23.777-.281-.144V3808.542l19.336,14.5v2.489l.624.467v.006l-.624-.468v144.9Z" transform="translate(2911.308 -3737.951)" fill="#57cc99"/>
      <path id="Path_3416" data-name="Path 3416" d="M-2551.768,3778.418v44.916l-3.119,1.565-58.944,30.008c15.787-32.584,39-56.929,56.605-72.18.786-.686,1.565-1.359,2.339-2l.168-.138,1.9-1.328,1.035-.83Z" transform="translate(2807.74 -3726.689)" fill="#38a3a5"/>
      <path id="Path_3417" data-name="Path 3417" d="M-2758.582,3767.021a48.444,48.444,0,0,1,.873-8.439c.98-5.049,3.026-9.954,5-14.7.579-1.393,1.167-2.816,1.74-4.247l-1.853-1.14-1.13-.69-1.847-1.135c-.728,1.719-1.5,3.421-2.26,5.092-2.618,5.741-5.322,11.674-6.1,18.046a19.933,19.933,0,0,0,1.285,8.856h-.006l-2.747,1.05,4.921,12.883,9.3-3.55-4.921-12.884Zm4.407,10.789-5.3,2.024-3.394-8.883.7-.268c.155.417.316.835.471,1.248a52.99,52.99,0,0,1,1.9,5.654l2.088-.455a51.376,51.376,0,0,1-.852-7.823l.99-.38" transform="translate(2864.491 -3711.082)" fill="#22577a"/>
      <path id="Path_3418" data-name="Path 3418" d="M-2682.936,3753.879l-.3-.482-.573-.016c-8.385-.241-16.947,2.259-25.488,7.427,2.458-3.116,6.468-5.649,11.983-7.587.428-.15.857-.3,1.307-.439.235-.075.471-.15.707-.22.257-.075.514-.155.777-.23.433-.123.873-.246,1.322-.364l.193-.048c.525-.139,1.055-.268,1.6-.4.139-.037.284-.069.429-.1.428-.1.862-.192,1.3-.284l.45-.1c.525-.107,1.066-.214,1.612-.315.043-.006.085-.017.134-.021q1.044-.193,2.136-.369l.9-.145v-12.139l30.055-9.521-53.321-32.728-59.645,18.9,10.913,6.693,1.847,1.135,1.13.69,1.853,1.141,13.252,8.133.509-.219a49.707,49.707,0,0,1,4.836-1.778c8.219-2.565,20.618-3.411,29.611-1.566l-1.917.05v.005c-.461.011-.921.027-1.387.042-.8.027-1.6.064-2.4.107-.594.032-1.189.07-1.788.107-.027,0-.048,0-.075,0-.594.042-1.189.086-1.783.134a1.439,1.439,0,0,1-.145.011c-.573.048-1.14.1-1.708.161-.07,0-.134.011-.2.021-.546.053-1.1.112-1.644.176l-.258.032c-.524.064-1.054.134-1.574.2-.1.017-.2.033-.3.043-.509.074-1.017.149-1.52.23-.113.016-.225.037-.338.054q-.731.12-1.462.257c-.123.021-.251.048-.374.069-.472.091-.937.182-1.4.279-.139.032-.273.064-.413.091q-.667.144-1.333.3c-.15.032-.3.075-.449.107-.423.107-.841.214-1.253.327-.171.048-.337.091-.5.139-.392.113-.777.225-1.162.342-.187.054-.375.113-.562.171-.354.113-.707.23-1.055.348l-.626.225c-.316.113-.627.23-.937.348-.235.091-.471.182-.7.278-.209.085-.417.166-.627.252s-.412.177-.621.267l-.632.284v11.523a35.067,35.067,0,0,0-4.353,4.385,34.429,34.429,0,0,0-7.829,25.349,34.713,34.713,0,0,0,34.489,31.447c1.075,0,2.163-.053,3.25-.155a34.7,34.7,0,0,0,31.293-37.739A34.242,34.242,0,0,0-2682.936,3753.879Z" transform="translate(2865.137 -3695.803)" fill="#22577a"/>
    </g>
    <g id="Group_7333" data-name="Group 7333" transform="translate(-2572.202 3789.18)">
      <path id="Path_3419" data-name="Path 3419" d="M-2313.892,3992.167a15.613,15.613,0,0,0,3.217.653q1.606.15,3.217.15a26.976,26.976,0,0,0,7.739-1.1,27.929,27.929,0,0,0,6.985-3.167,25.982,25.982,0,0,0,5.83-5.025,26.45,26.45,0,0,0,4.171-6.583l20.1,20.2a54.1,54.1,0,0,1-8.794,9.749,55.548,55.548,0,0,1-10.754,7.338,53.782,53.782,0,0,1-12.162,4.572,55.109,55.109,0,0,1-13.116,1.558,54.343,54.343,0,0,1-21.358-4.222,53.922,53.922,0,0,1-17.488-11.76,55.146,55.146,0,0,1-11.81-17.94,59.02,59.02,0,0,1-4.322-22.865,60.963,60.963,0,0,1,4.322-23.317,53.66,53.66,0,0,1,11.81-17.991,53.423,53.423,0,0,1,17.488-11.559,55.505,55.505,0,0,1,21.358-4.12,54.125,54.125,0,0,1,13.166,1.608,55.31,55.31,0,0,1,12.212,4.623,55.611,55.611,0,0,1,10.8,7.388,54.607,54.607,0,0,1,8.845,9.8Zm14.071-56.586a15.914,15.914,0,0,0-3.769-.9,36.212,36.212,0,0,0-3.869-.2,27.445,27.445,0,0,0-10.6,2.061,25.25,25.25,0,0,0-8.644,5.88,27.7,27.7,0,0,0-5.779,9.2,32.92,32.92,0,0,0-2.111,12.11q0,1.508.151,3.417a38.961,38.961,0,0,0,.5,3.87q.35,1.961.854,3.77a13.889,13.889,0,0,0,1.307,3.216Z" transform="translate(2362.437 -3868.039)" fill="#57cc99"/>
      <path id="Path_3420" data-name="Path 3420" d="M-2189.558,3898.266a41.526,41.526,0,0,1,3.417-16.785,44.158,44.158,0,0,1,9.3-13.72,44.162,44.162,0,0,1,13.72-9.3,41.552,41.552,0,0,1,16.784-3.417h66.135v28.846h-66.135a14.309,14.309,0,0,0-5.628,1.105,14.261,14.261,0,0,0-4.573,3.066,14.253,14.253,0,0,0-3.065,4.572,14.285,14.285,0,0,0-1.106,5.629,14.635,14.635,0,0,0,1.106,5.678,14.1,14.1,0,0,0,3.065,4.624,14.225,14.225,0,0,0,4.573,3.064,14.258,14.258,0,0,0,5.628,1.106h28.846a42.452,42.452,0,0,1,16.834,3.368,43.311,43.311,0,0,1,13.77,9.246,43.313,43.313,0,0,1,9.247,13.77,42.45,42.45,0,0,1,3.367,16.834,42.075,42.075,0,0,1-3.367,16.785,43.462,43.462,0,0,1-9.247,13.72,43.98,43.98,0,0,1-13.77,9.3,41.9,41.9,0,0,1-16.834,3.417h-64.024v-28.846h64.024a14.3,14.3,0,0,0,5.628-1.1,14.259,14.259,0,0,0,4.574-3.066,14.271,14.271,0,0,0,3.065-4.572,14.3,14.3,0,0,0,1.106-5.629,14.3,14.3,0,0,0-1.106-5.628,14.3,14.3,0,0,0-3.065-4.574,14.269,14.269,0,0,0-4.574-3.064,14.31,14.31,0,0,0-5.628-1.106h-28.846a41.512,41.512,0,0,1-16.784-3.418,44.135,44.135,0,0,1-13.72-9.3,43.961,43.961,0,0,1-9.3-13.77A41.88,41.88,0,0,1-2189.558,3898.266Z" transform="translate(2297.805 -3848.715)" fill="#22577a"/>
      <path id="Path_3421" data-name="Path 3421" d="M-1889.385,3932.263l-20.1,20.2a27.208,27.208,0,0,0-4.121-7.588,27.762,27.762,0,0,0-5.88-5.678,25.494,25.494,0,0,0-7.085-3.518,25.907,25.907,0,0,0-7.84-1.206,24.855,24.855,0,0,0-10.6,2.312,26.006,26.006,0,0,0-8.644,6.482,31.074,31.074,0,0,0-5.779,9.9,36.4,36.4,0,0,0-2.111,12.664,26.492,26.492,0,0,0,2.111,10.553,27.7,27.7,0,0,0,5.779,8.644,26.56,26.56,0,0,0,8.644,5.829,26.854,26.854,0,0,0,10.6,2.111,26.978,26.978,0,0,0,7.74-1.1,27.943,27.943,0,0,0,6.985-3.167,25.989,25.989,0,0,0,5.829-5.025,26.446,26.446,0,0,0,4.171-6.583l20.1,20.2a54.109,54.109,0,0,1-8.794,9.749,55.555,55.555,0,0,1-10.754,7.338,53.793,53.793,0,0,1-12.161,4.572,55.121,55.121,0,0,1-13.117,1.558,53.806,53.806,0,0,1-21.358-4.272,55.4,55.4,0,0,1-17.488-11.709,55.27,55.27,0,0,1-11.81-17.387,52.894,52.894,0,0,1-4.322-21.308,61.419,61.419,0,0,1,4.322-23.117,59.6,59.6,0,0,1,11.81-18.745,55.872,55.872,0,0,1,17.488-12.614,50.314,50.314,0,0,1,21.358-4.622,51.692,51.692,0,0,1,13.217,1.708,53.442,53.442,0,0,1,12.363,4.975,53.379,53.379,0,0,1,10.855,7.991A49.743,49.743,0,0,1-1889.385,3932.263Z" transform="translate(2222.97 -3868.039)" fill="#22577a"/>
      <path id="Path_3422" data-name="Path 3422" d="M-1780.886,3995.394h-27.439v-150.46h27.439v47.541a32.1,32.1,0,0,1,10.152-5.277,37.118,37.118,0,0,1,10.654-1.558,46.723,46.723,0,0,1,18.694,3.769,47.6,47.6,0,0,1,15.227,10.352,49.474,49.474,0,0,1,10.252,15.378,47.07,47.07,0,0,1,3.769,18.745v61.511h-27.639v-61.511h.2a20.148,20.148,0,0,0-1.608-7.99,20.719,20.719,0,0,0-4.422-6.583,20.876,20.876,0,0,0-6.533-4.423,19.821,19.821,0,0,0-7.94-1.609,20.788,20.788,0,0,0-8.141,1.609,20.533,20.533,0,0,0-6.634,4.423,20.665,20.665,0,0,0-4.422,6.583,20.128,20.128,0,0,0-1.609,7.99Z" transform="translate(2155.278 -3844.934)" fill="#22577a"/>
      <path id="Path_3423" data-name="Path 3423" d="M-1523.083,3963.722a57.972,57.972,0,0,1-4.322,22.464,56.209,56.209,0,0,1-11.759,17.991,55.038,55.038,0,0,1-17.438,11.96,52.981,52.981,0,0,1-21.459,4.372,52.725,52.725,0,0,1-21.358-4.372,55.589,55.589,0,0,1-17.489-11.96,55.739,55.739,0,0,1-11.809-17.991,57.95,57.95,0,0,1-4.322-22.464,58.857,58.857,0,0,1,4.322-22.715,55.61,55.61,0,0,1,11.809-18.041,54.894,54.894,0,0,1,17.489-11.91,53.246,53.246,0,0,1,21.358-4.322,56.371,56.371,0,0,1,21.459,4.07,51.865,51.865,0,0,1,17.438,11.559,54.771,54.771,0,0,1,11.759,17.99A60.876,60.876,0,0,1-1523.083,3963.722Zm-27.64,0a31.958,31.958,0,0,0-2.161-12.01,28.573,28.573,0,0,0-5.88-9.247,25.429,25.429,0,0,0-8.693-5.93,27.448,27.448,0,0,0-10.6-2.061,27.443,27.443,0,0,0-10.6,2.061,24.914,24.914,0,0,0-8.643,5.93,28.289,28.289,0,0,0-5.78,9.247,32.628,32.628,0,0,0-2.11,12.01,31.087,31.087,0,0,0,2.11,11.558,28.974,28.974,0,0,0,5.78,9.247,27.033,27.033,0,0,0,8.643,6.182,25.318,25.318,0,0,0,10.6,2.261,26.862,26.862,0,0,0,10.6-2.111,26.358,26.358,0,0,0,8.693-5.93,27.846,27.846,0,0,0,5.88-9.246A32.065,32.065,0,0,0-1550.722,3963.722Z" transform="translate(2089.746 -3868.039)" fill="#22577a"/>
      <path id="Path_3424" data-name="Path 3424" d="M-1332.706,3963.722a57.972,57.972,0,0,1-4.322,22.464,56.21,56.21,0,0,1-11.759,17.991,55.032,55.032,0,0,1-17.439,11.96,52.977,52.977,0,0,1-21.458,4.372,52.724,52.724,0,0,1-21.358-4.372,55.589,55.589,0,0,1-17.489-11.96,55.737,55.737,0,0,1-11.809-17.991,57.948,57.948,0,0,1-4.322-22.464,58.854,58.854,0,0,1,4.322-22.715,55.608,55.608,0,0,1,11.809-18.041,54.894,54.894,0,0,1,17.489-11.91,53.245,53.245,0,0,1,21.358-4.322,56.367,56.367,0,0,1,21.458,4.07,51.86,51.86,0,0,1,17.439,11.559,54.771,54.771,0,0,1,11.759,17.99A60.876,60.876,0,0,1-1332.706,3963.722Zm-27.64,0a31.961,31.961,0,0,0-2.161-12.01,28.577,28.577,0,0,0-5.88-9.247,25.431,25.431,0,0,0-8.693-5.93,27.447,27.447,0,0,0-10.6-2.061,27.444,27.444,0,0,0-10.6,2.061,24.916,24.916,0,0,0-8.643,5.93,28.293,28.293,0,0,0-5.78,9.247,32.63,32.63,0,0,0-2.11,12.01,31.09,31.09,0,0,0,2.11,11.558,28.978,28.978,0,0,0,5.78,9.247,27.035,27.035,0,0,0,8.643,6.182,25.319,25.319,0,0,0,10.6,2.261,26.862,26.862,0,0,0,10.6-2.111,26.36,26.36,0,0,0,8.693-5.93,27.849,27.849,0,0,0,5.88-9.246A32.067,32.067,0,0,0-1360.346,3963.722Z" transform="translate(2018.572 -3868.039)" fill="#22577a"/>
      <path id="Path_3425" data-name="Path 3425" d="M-1215.175,3995.394h-27.64v-150.46h27.64Z" transform="translate(1943.857 -3844.934)" fill="#22577a"/>
    </g>
  </g>
</svg>
